PathFileType	4	(X/Y/Z)	Patient4_TMGait_0pt6_02_left_43.trc.trc
DataRate	CameraRate	NumFrames	NumMarkers	Units	OrigDataRate	OrigDataStartFrame	OrigNumFrames
83.832335329341	83.832335329341	6	33	mm	83.832335329341	124	       141
Frame#	Time	Sacral			L.Shoulder			Chest			R.Shoulder			Neck			R.ASIS			L.ASIS			R.Thigh.Superior			R.Thigh.Lateral			R.Thigh.Inferior			R.Patella			L.Thigh.Superior			L.Thigh.Lateral			L.Thigh.Inferior			L.Patella			L.Shank.Superior			L.Shank.Lateral			L.Shank.Inferior			R.Shank.Superior			R.Shank.Lateral			R.Shank.Inferior			R.Heel			R.Midfoot.Superior			R.Midfoot.Lateral			R.Toe			L.Heel			L.Midfoot.Lateral			L.Midfoot.Superior			L.Toe			L.Elbow			L.Wrist			R.Elbow			R.Wrist			
		X1	Y1	Z1	X2	Y2	Z2	X3	Y3	Z3	X4	Y4	Z4	X5	Y5	Z5	X6	Y6	Z6	X7	Y7	Z7	X8	Y8	Z8	X9	Y9	Z9	X10	Y10	Z10	X11	Y11	Z11	X12	Y12	Z12	X13	Y13	Z13	X14	Y14	Z14	X15	Y15	Z15	X16	Y16	Z16	X17	Y17	Z17	X18	Y18	Z18	X19	Y19	Z19	X20	Y20	Z20	X21	Y21	Z21	X22	Y22	Z22	X23	Y23	Z23	X24	Y24	Z24	X25	Y25	Z25	X26	Y26	Z26	X27	Y27	Z27	X28	Y28	Z28	X29	Y29	Z29	X30	Y30	Z30	X31	Y31	Z31	X32	Y32	Z32	X33	Y33	Z33	

124	53.967214285714	865.370762144982	1004.099458896530	530.651526523784	1039.558340789150	1428.470568862423	343.825444647539	1154.194496546922	1347.268979167033	490.058456970910	1093.359716056088	1421.014359785863	671.745704261148	1056.019656094124	1484.150862481529	496.519462305100	1095.341697472455	935.325369863143	635.711301867463	1066.212133673398	944.857087895627	359.752940502798	1087.455691938957	721.353484004687	610.523961708488	979.775531407170	631.321380703637	672.201338814595	1036.523595572804	564.220770026722	591.573363095497	1015.509246486727	481.393999348020	595.392926659034	1139.975968503087	768.132378548789	396.713773544882	1094.515934145049	635.833154425088	320.927214025913	1200.853860271889	582.514482011479	382.559997325872	1226.597096148005	514.562164869436	381.281431742803	1208.956445363706	440.217579801702	372.001159858438	1137.679858795623	311.197487519333	326.498647766639	1223.062843031899	211.076201292832	381.609953349053	978.456485529018	398.012335822051	601.493710864845	896.816675562820	300.857898847104	661.975954806771	929.591723852846	203.832494325710	595.670066611061	784.713728220241	42.953794185495	559.790828627353	956.438930971461	96.903431365325	596.922188320064	867.549330322481	36.299312754221	635.018814265348	1076.115023208752	42.709048259114	624.022157251682	1135.515449168808	37.635806493469	424.703572251299	1207.115978229843	40.633635399463	342.658795743720	1282.323209466409	111.879880678114	363.695310549611	1413.346401007447	75.703719758210	333.357653145875	880.305491449021	1116.514266925496	235.874304794978	820.848144643008	863.938788136961	243.036894427237	1242.678483609698	1113.398455215440	770.973582389690	1465.341309463418	1169.674624558334	664.634087601513	
125	53.979142857143	866.682676973544	1002.328754427421	528.276988280775	1038.906904646824	1427.246284411818	341.374573152876	1153.616604043156	1347.049536559346	488.060839922532	1091.674932128325	1420.453644930152	669.549898738893	1054.769147186901	1483.248616937759	493.973374424526	1096.834796707691	934.240172514849	633.897846515904	1068.242367792168	943.659262724917	358.020448649822	1088.985386464279	719.946229155794	608.512472783355	981.028058849740	630.013997717673	670.265609054529	1037.318270170958	562.636538037568	589.561761255236	1015.424413670164	479.333072145037	593.167380973356	1142.324793691976	765.905806912737	395.263890932466	1094.698036293164	633.669166819494	321.147388666563	1200.983670562969	579.953014994757	382.408106854772	1224.937065139651	511.347131594198	382.356220966978	1207.285479728490	437.048694709785	372.862955470551	1135.205953611684	308.589497181896	327.467754581118	1219.085714737640	207.932490739722	383.360768855238	977.182329429767	396.219653252349	599.757518479202	894.223061249693	300.500067097249	660.898876040802	924.758142225496	202.807028514951	594.754926214896	777.553115149611	43.171840086665	559.859721020337	949.383680679673	96.809595758657	596.777659181185	860.416835484314	36.282640779487	635.003107148077	1069.034339540821	42.300239203957	624.039967091459	1128.592856780504	37.303052758631	426.684473483599	1200.179810371108	39.061470542555	344.493998899096	1277.308600372090	107.777836992901	366.194884888020	1407.549031288233	68.040154160706	335.573638583889	879.627049848344	1115.409473346872	234.115684412627	818.623192976948	863.132531024451	242.645375324466	1241.990692272029	1113.419461041808	768.913761750670	1460.728227607035	1178.857258443974	661.111329922281	
126	53.991071428571	868.045417224706	1000.787347857680	525.896215111162	1038.253407679147	1426.160535107832	338.851080543644	1153.098258379992	1347.037994827474	485.983324615682	1090.130885967482	1420.147195083229	667.293602341833	1053.600249616074	1482.574031849749	491.321675204922	1098.373173593731	933.256107355354	631.906721051855	1070.226268897188	942.821067953730	356.174791636050	1090.698617578986	718.676624910365	606.301670938744	982.572199217827	628.745958010501	668.125913458280	1038.559501086150	561.105913679072	587.409769603128	1015.832239014506	477.192670468036	590.849862205995	1144.867150146326	764.245661007731	393.630108275772	1095.315929472440	632.192401975676	320.986736412876	1201.383530668391	577.979712988995	382.075216623344	1223.613622443454	508.694856861622	383.162062709293	1205.881203653634	434.353067196304	373.476839196973	1132.975634330261	306.599431101556	327.694554336166	1214.831654505950	205.198281135613	384.700815176174	976.252861253099	394.462509570727	597.951272976802	891.815025929906	300.314400651665	659.704082737089	920.085491676550	201.910066768827	593.845880546083	770.421909954484	43.664201184237	559.963512030958	942.453830653843	96.776493764627	596.668754925868	853.331859380950	36.352307650309	634.960873992223	1062.008675453477	41.816733200244	624.064201554154	1120.964382010996	37.246388294941	428.016539348047	1192.651604954884	37.883507986663	345.772326971868	1271.561723297811	104.237499544208	368.253988023779	1401.121491512923	61.155001227393	337.519072474351	879.780938650468	1113.866347518937	232.282562182476	817.634067929264	861.796524585297	241.934870295380	1240.634037916971	1113.171627239817	767.151049685176	1455.569930750785	1186.691563086785	658.050875994352	
127	54.003000000000	869.427311816969	999.550929618872	523.527583126881	1037.618282942080	1425.275147532042	336.298874223781	1152.657386247709	1347.253271632449	483.849638551799	1088.790364507127	1420.131685440367	665.005345375457	1052.550342417996	1482.172535821431	488.617528445544	1099.901043026131	932.430388017137	629.743459751479	1072.102163164784	942.388532362112	354.204351097805	1092.494158631730	717.608504222061	603.926442397973	984.312005758823	627.592921973749	665.820338287945	1040.179903495441	559.700800626247	585.171023782297	1016.715192158506	475.019017940897	588.550672393771	1147.450519951883	763.197044084991	391.802177647058	1096.276222682648	631.429354869974	320.349443430580	1201.912543741807	576.606389352910	381.476485296802	1222.556682804217	506.673486100303	383.559889664465	1204.692496284105	432.197805610518	373.748935833395	1131.001109144602	305.230615613491	327.165621871865	1210.449856260036	202.962722001701	385.575768094965	975.620190584354	392.809904070789	596.145367922503	889.534435650436	300.382661788890	658.427597819631	915.572306296349	201.226158592745	592.988798579549	763.339715224893	44.538329201496	560.105318554948	935.688829752234	96.829477671026	596.617544654784	846.307086137156	36.566840315140	634.893049222096	1055.041060593979	41.268977826049	624.094132635290	1113.049298120127	37.370599224273	428.743990891536	1184.907920027098	37.073968726863	346.512038197286	1265.328704814951	101.409996179780	369.785459886500	1394.346389394787	55.448678494312	339.071916136867	880.749452972761	1111.972293993360	230.387273486451	817.931085497171	859.992091437617	240.870473429361	1238.578009850303	1112.641386429757	765.691428744605	1449.996460361746	1193.121238108218	655.450030825690	
128	54.014928571429	870.795289434248	998.678386934688	521.172169131648	1037.019547160621	1424.645941235960	333.760387308779	1152.304002464115	1347.707258800445	481.685059758714	1087.694526141729	1420.429640255613	662.712407037527	1051.645796588962	1482.075880088965	485.915120553839	1101.365654647718	931.819701225416	627.416493605587	1073.822972937445	942.383664998594	352.097233401782	1094.294275097743	716.804282310983	601.428802786340	986.179504977484	626.625506151601	663.394468717922	1042.141121627380	558.492031768215	582.904312565790	1018.088961827869	472.861755605461	586.389979542723	1149.918355368749	762.748109696259	389.760374744183	1097.419508944964	631.329103507279	319.198320453633	1202.401005142890	575.776647414342	380.530912963766	1221.636764907663	505.265432134303	383.445686002762	1203.594535585885	430.578964220847	373.621687392942	1129.170872513714	304.426609789580	325.973520808867	1205.994929570353	201.250487180462	385.989777051519	975.272904700942	391.325414707031	594.413665732788	887.362524368770	300.786573634904	657.112808461069	911.240205870831	200.838898684683	592.229675139840	756.338506611877	45.917486232855	560.287685476750	929.134373705309	96.996320925264	596.647899246887	839.360007980966	37.000955569725	634.806088949132	1048.129065305373	40.673083441227	624.126963267594	1105.138049863888	37.588949075134	428.968501829003	1177.195943219075	36.580015313091	346.786285689418	1258.784730827078	99.345096690689	370.775463875471	1387.412746581490	51.117014017723	340.172626711558	882.501910927065	1109.832789474903	228.438568447138	819.569790744401	857.799903419333	239.431167129438	1235.784022177866	1111.833109032154	764.526520537447	1444.119442005097	1198.091026361732	653.296902907072	
129	54.026857142857	872.113804151208	998.207022297851	518.813780267304	1036.472805642744	1424.317651114065	331.270971727336	1152.039913217423	1348.403422270399	479.513253592825	1086.856763394045	1421.045840200240	660.437405364854	1050.899974671911	1482.298762832724	483.262528887745	1102.719625391431	931.472912132822	624.937364680591	1075.358958479049	942.802696732604	349.845318545811	1096.057354290666	716.317379711256	598.856141072343	988.147075207491	625.898265021870	660.896285892329	1044.444700197711	557.540276648928	580.667547377662	1020.006767236219	470.769362438740	584.481884693691	1152.124772726241	762.823282775165	387.476568254710	1098.517894188623	631.765337216384	317.564311424106	1202.655736734901	575.369852569286	379.181476963656	1220.670826171624	504.377798499962	382.776912992857	1202.402481957012	429.432689214984	373.083662044194	1127.281457917454	304.081095365710	324.297412797326	1201.447371510544	200.027582956193	385.997373400289	975.244927972506	390.059916968245	592.823957046623	885.331466460098	301.600423191194	655.804599430584	907.138286423142	200.824692607661	591.609207250925	749.465392481627	47.936645807225	560.512626401355	922.840873930162	97.305940461889	596.781805263183	832.513995384373	37.745036988708	634.711752510702	1041.263695319865	40.050001876829	624.157793357970	1097.397176543067	37.830669847245	428.822445147373	1169.646452259602	36.332123242465	346.702290376027	1252.045710151733	97.999395274032	371.274894130931	1380.430283600424	48.158116208468	340.827025093524	884.997157861646	1107.563138021578	226.437043866468	822.612608608023	855.315911145187	237.610859689173	1232.204110196758	1110.770956445541	763.634053656460	1438.024686841985	1201.542030391954	651.570842564073	
